<svg width="25" height="24" viewBox="0 0 25 24" fill="none" xmlns="http://www.w3.org/2000/svg">
<path d="M7.615 10.8715H4.67052C4.10187 10.8715 3.81755 10.8715 3.60036 10.9792C3.40931 11.074 3.25399 11.2252 3.15664 11.4111C3.04598 11.6226 3.04598 11.8993 3.04598 12.4528V20.7547M16.753 10.8715H19.6975C20.2662 10.8715 20.5505 10.8715 20.7677 10.9792C20.9587 11.074 21.114 11.2252 21.2114 11.4111C21.3221 11.6226 21.3221 11.8993 21.3221 12.4528V20.7547M16.753 20.7547V6.12758C16.753 5.02056 16.753 4.46705 16.5317 4.04423C16.337 3.6723 16.0264 3.36991 15.6443 3.18041C15.2099 2.96497 14.6412 2.96497 13.504 2.96497H10.8641C9.72679 2.96497 9.15815 2.96497 8.72376 3.18041C8.34167 3.36991 8.03101 3.6723 7.83633 4.04423C7.615 4.46705 7.615 5.02056 7.615 6.12758V20.7547M22.3374 20.7547H2.03064M11.1687 6.91824H13.1994M11.1687 10.8715H13.1994M11.1687 14.8248H13.1994" stroke="black" stroke-width="2" stroke-linecap="round" stroke-linejoin="round"/>
</svg>
