<svg width="50" height="50" viewBox="0 0 50 50" fill="none" xmlns="http://www.w3.org/2000/svg">
<path d="M25 4.1665C26.6576 4.1665 28.2473 4.82498 29.4194 5.99709C30.5915 7.16919 31.25 8.7589 31.25 10.4165V22.9165C31.25 24.5741 30.5915 26.1638 29.4194 27.3359C28.2473 28.508 26.6576 29.1665 25 29.1665C23.3424 29.1665 21.7526 28.508 20.5805 27.3359C19.4084 26.1638 18.75 24.5741 18.75 22.9165V10.4165C18.75 8.7589 19.4084 7.16919 20.5805 5.99709C21.7526 4.82498 23.3424 4.1665 25 4.1665ZM39.5833 22.9165C39.5833 30.2707 34.1458 36.3332 27.0833 37.354V43.7498H22.9166V37.354C15.8541 36.3332 10.4166 30.2707 10.4166 22.9165H14.5833C14.5833 25.6792 15.6808 28.3287 17.6343 30.2822C19.5878 32.2357 22.2373 33.3332 25 33.3332C27.7626 33.3332 30.4121 32.2357 32.3657 30.2822C34.3192 28.3287 35.4166 25.6792 35.4166 22.9165H39.5833Z" fill="black"/>
<path d="M25 4.1665C26.6576 4.1665 28.2473 4.82498 29.4194 5.99709C30.5915 7.16919 31.25 8.7589 31.25 10.4165V22.9165C31.25 24.5741 30.5915 26.1638 29.4194 27.3359C28.2473 28.508 26.6576 29.1665 25 29.1665C23.3424 29.1665 21.7526 28.508 20.5805 27.3359C19.4084 26.1638 18.75 24.5741 18.75 22.9165V10.4165C18.75 8.7589 19.4084 7.16919 20.5805 5.99709C21.7526 4.82498 23.3424 4.1665 25 4.1665ZM39.5833 22.9165C39.5833 30.2707 34.1458 36.3332 27.0833 37.354V43.7498H22.9166V37.354C15.8541 36.3332 10.4166 30.2707 10.4166 22.9165H14.5833C14.5833 25.6792 15.6808 28.3287 17.6343 30.2822C19.5878 32.2357 22.2373 33.3332 25 33.3332C27.7626 33.3332 30.4121 32.2357 32.3657 30.2822C34.3192 28.3287 35.4166 25.6792 35.4166 22.9165H39.5833Z" fill="black"/>
</svg>
