<svg width="21" height="18" viewBox="0 0 21 18" fill="none" xmlns="http://www.w3.org/2000/svg">
<path d="M15 1.43281V-0.500187C15 -0.595194 15.0271 -0.688225 15.0781 -0.768385C15.1291 -0.848545 15.2019 -0.912517 15.288 -0.952809C15.374 -0.993101 15.4697 -1.00805 15.564 -0.995892C15.6582 -0.983739 15.747 -0.944992 15.82 -0.884187L19.94 2.54881C20.019 2.61466 20.0757 2.70323 20.1025 2.80249C20.1293 2.90174 20.1248 3.00684 20.0898 3.10347C20.0547 3.2001 19.9906 3.28357 19.9064 3.3425C19.8222 3.40144 19.7218 3.43297 19.619 3.43281H0V1.43281H15ZM0 15.4328H20V17.4328H0V15.4328ZM0 8.43281H20V10.4328H0V8.43281Z" fill="black"/>
</svg>
