<svg width="24" height="24" viewBox="0 0 24 24" fill="none" xmlns="http://www.w3.org/2000/svg">
<path opacity="0.5" d="M19 9H5C4.20435 9 3.44129 9.31607 2.87868 9.87868C2.31607 10.4413 2 11.2044 2 12V14.72L8.837 17H15.163L22 14.72V12C22 11.2044 21.6839 10.4413 21.1213 9.87868C20.5587 9.31607 19.7956 9 19 9Z" fill="#3F9D13"/>
<path d="M10 7V6H14V7H16V6C15.9995 5.46973 15.7886 4.96133 15.4136 4.58637C15.0387 4.21141 14.5303 4.00053 14 4H10C9.46973 4.00053 8.96133 4.21141 8.58637 4.58637C8.21141 4.96133 8.00053 5.46973 8 6V7H10ZM8.837 15L2 12.72V19C2.00079 19.7954 2.31712 20.558 2.87956 21.1204C3.44199 21.6829 4.20459 21.9992 5 22H19C19.7954 21.9992 20.558 21.6829 21.1204 21.1204C21.6829 20.558 21.9992 19.7954 22 19V12.72L15.163 15H8.837Z" fill="#3F9D13"/>
</svg>
