<svg width="24" height="24" viewBox="0 0 24 24" fill="none" xmlns="http://www.w3.org/2000/svg">
<path d="M12 9C6.48 9 2 11.24 2 14C2 16.24 4.94 18.13 9 18.77V20.79C9 21.24 9.54 21.46 9.85 21.14L12.64 18.35C12.84 18.15 12.84 17.84 12.64 17.64L9.85 14.85C9.7795 14.7809 9.69013 14.7342 9.59314 14.7158C9.49616 14.6974 9.39589 14.7082 9.30499 14.7467C9.2141 14.7852 9.13663 14.8497 9.08235 14.9322C9.02807 15.0146 8.99942 15.1113 9 15.21V16.73C5.85 16.17 4 14.83 4 14C4 12.94 7.04 11 12 11C16.96 11 20 12.94 20 14C20 14.66 18.8 15.68 16.68 16.34C16.27 16.47 16 16.85 16 17.28C16 17.95 16.65 18.44 17.28 18.24C20.11 17.36 22 15.79 22 14C22 11.24 17.52 9 12 9Z" fill="black"/>
</svg>
