<svg width="20" height="23" viewBox="0 0 20 23" fill="none" xmlns="http://www.w3.org/2000/svg">
<path d="M1.18503 11.0461L0.0255749 2.51707C-0.0258366 2.1357 0.00412753 1.74366 0.11231 1.38225C0.220493 1.02083 0.402889 0.703429 0.640281 0.46348C0.877673 0.223531 1.16127 0.0699198 1.46119 0.018831C1.76112 -0.0322578 2.06626 0.0210675 2.34448 0.173188L19.1434 9.382C19.3977 9.52195 19.6144 9.75416 19.7666 10.0499C19.9189 10.3457 20 10.692 20 11.0461C20 11.4002 19.9189 11.7466 19.7666 12.0423C19.6144 12.3381 19.3977 12.5703 19.1434 12.7102L2.34323 21.9191C2.06489 22.0707 1.75974 22.1237 1.45988 22.0723C1.16001 22.0209 0.876512 21.8671 0.639204 21.6271C0.401896 21.387 0.21955 21.0697 0.111346 20.7083C0.00314149 20.3469 -0.0269207 19.9549 0.0243214 19.5736L1.18503 11.0461ZM1.94087 2.56838L2.92859 9.84372H9.03296C9.28229 9.84372 9.52141 9.9704 9.69771 10.1959C9.87401 10.4214 9.97306 10.7272 9.97306 11.0461C9.97306 11.365 9.87401 11.6709 9.69771 11.8963C9.52141 12.1218 9.28229 12.2485 9.03296 12.2485H2.92859L1.94087 19.5239L17.4048 11.0461L1.94087 2.56838Z" fill="#3F9D13"/>
</svg>
