<svg width="30" height="30" viewBox="0 0 30 30" fill="none" xmlns="http://www.w3.org/2000/svg">
<path d="M14.9959 0C15.8298 0 16.6458 0.0689999 17.4437 0.198L14.6359 3.006C12.2951 3.07625 10.0261 3.82996 8.10843 5.17422C6.19079 6.51849 4.7084 8.39455 3.84398 10.5711C2.97956 12.7477 2.7709 15.1297 3.24373 17.4235C3.71656 19.7172 4.8502 21.8225 6.50492 23.4797C8.15964 25.1369 10.2631 26.2737 12.556 26.7499C14.8489 27.2261 17.231 27.0209 19.4088 26.1596C21.5865 25.2983 23.4646 23.8185 24.8115 21.9027C26.1585 19.9869 26.9155 17.7188 26.9891 15.378L29.7999 12.57C30.2973 15.6 29.8529 18.7097 28.5267 21.4791C27.2004 24.2485 25.0563 26.5441 22.3838 28.0559C19.7113 29.5677 16.6393 30.2229 13.5826 29.933C10.526 29.643 7.63189 28.4219 5.29132 26.4345C2.95075 24.4471 1.27644 21.7893 0.494522 18.8199C-0.287396 15.8506 -0.139247 12.7128 0.918958 9.83029C1.97716 6.94782 3.89444 4.45956 6.41184 2.7016C8.92925 0.943628 11.9255 0.000642488 14.9959 0ZM28.318 1.686C27.7849 1.15272 27.1519 0.729691 26.4552 0.441077C25.7585 0.152463 25.0119 0.00391424 24.2578 0.00391424C23.5037 0.00391424 22.757 0.152463 22.0604 0.441077C21.3637 0.729691 20.7307 1.15272 20.1975 1.686L12.4461 9.438C12.2828 9.60166 12.1596 9.80085 12.0861 10.02L9.13427 18.78C9.03629 19.071 9.02146 19.3836 9.09145 19.6826C9.16144 19.9816 9.31346 20.2551 9.53042 20.4724C9.74739 20.6897 10.0207 20.8421 10.3195 20.9125C10.6184 20.9829 10.931 20.9686 11.2221 20.871L19.9816 17.925C20.2018 17.8519 20.402 17.7286 20.5665 17.565L28.318 9.81C28.8513 9.27679 29.2743 8.64376 29.5629 7.94706C29.8515 7.25035 30 6.50362 30 5.7495C30 4.99538 29.8515 4.24864 29.5629 3.55194C29.2743 2.85523 28.8513 2.2192 28.318 1.686ZM22.3184 3.807C22.8328 3.29261 23.5304 3.00363 24.2578 3.00363C24.9852 3.00363 25.6828 3.29261 26.1972 3.807C26.7115 4.32139 27.0005 5.01904 27.0005 5.7465C27.0005 6.47395 26.7115 7.17161 26.1972 7.686L18.6916 15.189L12.845 17.157L14.8129 11.313L22.3184 3.807Z" fill="#3F9D13"/>
</svg>
