<svg xmlns="http://www.w3.org/2000/svg" width="20" height="20" viewBox="0 0 20 20" fill="none">
  <path d="M17.8045 14.6977C17.1788 14.0714 16.4477 13.5603 15.6446 13.1877C16.7771 12.2702 17.4995 10.8703 17.4995 9.30031C17.4995 6.5304 15.1896 4.25796 12.4197 4.30046C9.69228 4.34296 7.49484 6.56539 7.49484 9.30031C7.49484 10.8703 8.21982 12.2702 9.34979 13.1877C8.54658 13.56 7.81538 14.0712 7.18985 14.6977C5.82489 16.0651 5.04991 17.8701 4.99992 19.795C4.99925 19.8217 5.00393 19.8482 5.01368 19.8731C5.02343 19.8979 5.03806 19.9206 5.05669 19.9397C5.07533 19.9588 5.09761 19.974 5.1222 19.9843C5.1468 19.9947 5.17322 20 5.19991 20H6.59987C6.70737 20 6.79736 19.915 6.79986 19.8075C6.84736 18.3575 7.43484 17.0001 8.46731 15.9701C8.99565 15.439 9.62408 15.0179 10.3162 14.7312C11.0084 14.4446 11.7505 14.2981 12.4997 14.3002C14.0222 14.3002 15.4546 14.8926 16.5321 15.9701C17.562 17.0001 18.1495 18.3575 18.1995 19.8075C18.202 19.915 18.292 20 18.3995 20H19.7995C19.8262 20 19.8526 19.9947 19.8772 19.9843C19.9018 19.974 19.9241 19.9588 19.9427 19.9397C19.9613 19.9206 19.976 19.8979 19.9857 19.8731C19.9955 19.8482 20.0001 19.8217 19.9995 19.795C19.9495 17.8701 19.1745 16.0651 17.8045 14.6977ZM12.4997 12.5002C11.6447 12.5002 10.8397 12.1677 10.2373 11.5627C9.9349 11.2628 9.69607 10.905 9.535 10.5107C9.37393 10.1164 9.29394 9.69369 9.29979 9.26782C9.30729 8.44784 9.63478 7.65536 10.2073 7.06788C10.8072 6.4529 11.6097 6.11041 12.4672 6.10041C13.3147 6.09291 14.1371 6.4229 14.7421 7.01538C15.3621 7.62286 15.7021 8.43534 15.7021 9.30031C15.7021 10.1553 15.3696 10.9578 14.7646 11.5627C14.4678 11.861 14.1148 12.0974 13.726 12.2583C13.3373 12.4192 12.9205 12.5014 12.4997 12.5002ZM6.23738 9.96029C6.21488 9.7428 6.20238 9.52281 6.20238 9.30031C6.20238 8.90283 6.23988 8.51534 6.30988 8.13785C6.32738 8.04785 6.27988 7.95535 6.19738 7.91786C5.85739 7.76536 5.5449 7.55537 5.27491 7.29037C4.95677 6.9819 4.70642 6.6105 4.53984 6.19986C4.37326 5.78923 4.29411 5.34838 4.30744 4.90544C4.32994 4.10297 4.65243 3.34049 5.21491 2.76551C5.83239 2.13302 6.66237 1.78803 7.54484 1.79803C8.34232 1.80553 9.1123 2.11302 9.69478 2.65801C9.89227 2.843 10.0623 3.048 10.2048 3.26799C10.2548 3.34549 10.3523 3.37799 10.4373 3.34799C10.8772 3.19549 11.3422 3.088 11.8197 3.038C11.9597 3.023 12.0397 2.873 11.9772 2.74801C11.1647 1.14055 9.50478 0.0305857 7.58484 0.000586576C4.81242 -0.0419122 2.50249 2.23052 2.50249 4.99794C2.50249 6.56789 3.22497 7.96785 4.35743 8.88533C3.56246 9.25282 2.82998 9.7603 2.195 10.3953C0.825038 11.7627 0.050061 13.5677 6.25132e-05 15.4951C-0.00060473 15.5218 0.0040752 15.5484 0.0138267 15.5732C0.0235782 15.598 0.0382038 15.6207 0.0568419 15.6398C0.0754799 15.6589 0.0977534 15.6741 0.12235 15.6844C0.146946 15.6948 0.173367 15.7001 0.200057 15.7001H1.60252C1.71001 15.7001 1.80001 15.6151 1.80251 15.5076C1.85001 14.0577 2.43749 12.7002 3.46996 11.6702C4.20494 10.9353 5.10491 10.4253 6.08738 10.1778C6.18488 10.1528 6.24988 10.0603 6.23738 9.96029Z" fill="#333333"/>
</svg>