<svg xmlns="http://www.w3.org/2000/svg" width="1440" height="1177" viewBox="0 0 1440 1177" fill="none">
  <g filter="url(#filter0_f_17_187)">
    <path d="M-7 131H1433V1075H-7V131Z" fill="white"/>
    <path d="M549 567C549 734.342 405.731 870 229 870C52.2689 870 -91 734.342 -91 567C-91 399.658 52.2689 264 229 264C405.731 264 549 399.658 549 567Z" fill="#765FFF" fill-opacity="0.5"/>
    <path d="M1530 717C1530 884.342 1386.73 1020 1210 1020C1033.27 1020 890 884.342 890 717C890 549.658 1033.27 414 1210 414C1386.73 414 1530 549.658 1530 717Z" fill="#9D8CFF" fill-opacity="0.5"/>
    <path d="M1006 399C1006 484.052 946.23 553 872.5 553C798.77 553 739 484.052 739 399C739 313.948 798.77 245 872.5 245C946.23 245 1006 313.948 1006 399Z" fill="#9D8CFF" fill-opacity="0.5"/>
    <path d="M1237 834C1237 926.232 1155.29 1001 1054.5 1001C953.708 1001 872 926.232 872 834C872 741.768 953.708 667 1054.5 667C1155.29 667 1237 741.768 1237 834Z" fill="#F6497F" fill-opacity="0.5"/>
    <path d="M660 332.5C660 453.727 558.369 552 433 552C307.631 552 206 453.727 206 332.5C206 211.273 307.631 113 433 113C558.369 113 660 211.273 660 332.5Z" fill="#F8D5E0" fill-opacity="0.5"/>
    <path d="M479 871.5C479 992.727 377.369 1091 252 1091C126.631 1091 25 992.727 25 871.5C25 750.273 126.631 652 252 652C377.369 652 479 750.273 479 871.5Z" fill="#F8D5E0" fill-opacity="0.5"/>
    <path d="M1147 342C1147 449.143 1061.71 536 956.5 536C851.29 536 766 449.143 766 342C766 234.857 851.29 148 956.5 148C1061.71 148 1147 234.857 1147 342Z" fill="#D7F2E8" fill-opacity="0.5"/>
    <path d="M1147 342C1147 449.143 1061.71 536 956.5 536C851.29 536 766 449.143 766 342C766 234.857 851.29 148 956.5 148C1061.71 148 1147 234.857 1147 342Z" fill="#D7F2E8" fill-opacity="0.5"/>
    <path d="M142 841.5C142 904.184 89.8412 955 25.5 955C-38.8412 955 -91 904.184 -91 841.5C-91 778.816 -38.8412 728 25.5 728C89.8412 728 142 778.816 142 841.5Z" fill="#F68558" fill-opacity="0.5"/>
    <path d="M1490 276.5C1490 328.691 1458.21 371 1419 371C1379.79 371 1348 328.691 1348 276.5C1348 224.309 1379.79 182 1419 182C1458.21 182 1490 224.309 1490 276.5Z" fill="#F89652"/>
  </g>
  <defs>
    <filter id="filter0_f_17_187" x="-291" y="-87" width="2021" height="1378" filterUnits="userSpaceOnUse" color-interpolation-filters="sRGB">
      <feFlood flood-opacity="0" result="BackgroundImageFix"/>
      <feBlend mode="normal" in="SourceGraphic" in2="BackgroundImageFix" result="shape"/>
      <feGaussianBlur stdDeviation="100" result="effect1_foregroundBlur_17_187"/>
    </filter>
  </defs>
</svg>